<?xml version="1.0" encoding="UTF-8"?>
<svg version="1.1" xmlns="http://www.w3.org/2000/svg" width="256" height="256">
<path d="M0 0 C11.52997531 1.92166255 11.52997531 1.92166255 16 7 C17.53615267 12.86279577 17.38524381 18.62902346 17.29296875 24.65625 C17.29716871 26.40451039 17.30448491 28.15276582 17.31477356 29.90100098 C17.32498895 33.56009797 17.29967098 37.21674504 17.2487793 40.87548828 C17.18619231 45.55770735 17.2086265 50.23489223 17.25730419 54.91712189 C17.2859923 58.52581449 17.27122647 62.13332973 17.24328041 65.74198914 C17.23478366 67.4674892 17.23929434 69.19310548 17.25722313 70.91853333 C17.35858041 84.35096021 17.35858041 84.35096021 14.08505249 88.32435608 C11.77498077 89.8952198 9.59365114 90.97885769 7 92 C6.11344727 92.53294678 5.22689453 93.06589355 4.31347656 93.61499023 C1.96671128 94.90412905 -0.38762162 96.17718809 -2.75 97.4375 C-3.57371094 97.89576172 -4.39742187 98.35402344 -5.24609375 98.82617188 C-6.04660156 99.25349609 -6.84710938 99.68082031 -7.671875 100.12109375 C-8.3844043 100.5070874 -9.09693359 100.89308105 -9.83105469 101.29077148 C-13.68109065 102.54970377 -16.30568355 101.33727344 -19.84667969 99.6171875 C-20.86149414 99.04226562 -21.87630859 98.46734375 -22.921875 97.875 C-24.02917969 97.25109375 -25.13648438 96.6271875 -26.27734375 95.984375 C-27.42332031 95.32953125 -28.56929687 94.6746875 -29.75 94 C-30.92284227 93.33794819 -32.09601629 92.67648372 -33.26953125 92.015625 C-41.83069407 87.16930593 -41.83069407 87.16930593 -43 86 C-43.38775295 81.39017132 -43.48513636 76.77927862 -43.56982422 72.1550293 C-43.60640975 70.60176298 -43.66091001 69.0488085 -43.73388672 67.49682617 C-44.32705982 54.68893407 -44.32705982 54.68893407 -41.27294922 50.80200195 C-38.92051204 49.21432463 -36.60832472 48.11161822 -34 47 C-32.46498481 46.08290856 -30.94118197 45.1467663 -29.4296875 44.19140625 C-27.91371495 43.31120606 -26.39548243 42.43488657 -24.875 41.5625 C-24.11574219 41.10423828 -23.35648438 40.64597656 -22.57421875 40.17382812 C-19.00543385 38.13759371 -16.66792115 37.01867788 -12.5078125 36.90234375 C-9 38 -9 38 0 43 C0 28.81 0 14.62 0 0 Z M-20.3125 57.4375 C-23.59118146 59.23737076 -23.59118146 59.23737076 -26 62 C-27.05769558 67.1874919 -26.7246393 71.7866228 -26 77 C-24.28133783 78.0384211 -22.54955402 79.05514635 -20.8125 80.0625 C-19.84957031 80.63097656 -18.88664062 81.19945312 -17.89453125 81.78515625 C-13.67833164 83.55470831 -11.48078972 82.52746378 -7.32421875 81.046875 C-4.39916368 79.60818125 -2.2826063 78.34244991 0 76 C1.43913992 71.39007213 1.3964857 67.61779096 0 63 C-2.60488904 60.06268788 -5.41843707 58.5317018 -9 57 C-9.7940625 56.57203125 -10.588125 56.1440625 -11.40625 55.703125 C-15.13279891 54.69291596 -16.91383707 55.70704525 -20.3125 57.4375 Z " fill="#36464E" transform="translate(176,64)"/>
<path d="M0 0 C4.50893481 0.43060572 7.81504972 1.70675327 11.765625 3.87109375 C12.82007813 4.44537109 13.87453125 5.01964844 14.9609375 5.61132812 C16.04632813 6.21396484 17.13171875 6.81660156 18.25 7.4375 C19.35085937 8.03626953 20.45171875 8.63503906 21.5859375 9.25195312 C29.70603741 13.70603741 29.70603741 13.70603741 32 16 C32.28522973 18.43772581 32.44847969 20.75740717 32.51171875 23.203125 C32.53023392 23.91853455 32.54874908 24.63394409 32.56782532 25.37103271 C32.5998861 26.88737263 32.62552444 28.40385979 32.64526367 29.92041016 C32.6733002 31.46679488 32.72099124 33.01295459 32.78881836 34.55810547 C33.34618834 47.29448643 33.34618834 47.29448643 30.26855469 51.19360352 C27.91768045 52.78108384 25.60589143 53.88621771 23 55 C21.46509868 55.91728202 19.94130255 56.8534245 18.4296875 57.80859375 C16.91371495 58.68879394 15.39548243 59.56511343 13.875 60.4375 C12.73611328 61.12489258 12.73611328 61.12489258 11.57421875 61.82617188 C10.82527344 62.25349609 10.07632813 62.68082031 9.3046875 63.12109375 C8.64452637 63.5070874 7.98436523 63.89308105 7.30419922 64.29077148 C2.86114237 65.65833666 -0.9619762 64.46992006 -5.08959961 62.60131836 C-6.10030518 62.02003174 -7.11101074 61.43874512 -8.15234375 60.83984375 C-9.14999756 60.27386475 -10.14765137 59.70788574 -11.17553711 59.12475586 C-13.03770874 58.04206421 -13.03770874 58.04206421 -14.9375 56.9375 C-18.918125 54.648125 -22.89875 52.35875 -27 50 C-27 38.45 -27 26.9 -27 15 C-14.0625 8.0625 -14.0625 8.0625 -9.97680664 5.87524414 C-8.92356201 5.30926514 -7.87031738 4.74328613 -6.78515625 4.16015625 C-5.70113525 3.57886963 -4.61711426 2.99758301 -3.50024414 2.39868164 C-1.13192656 1.22255544 -1.13192656 1.22255544 0 0 Z " fill="#4BAE4F" transform="translate(91,101)"/>
<path d="M0 0 C1.01070557 0.58128662 2.02141113 1.16257324 3.06274414 1.76147461 C4.16811523 2.38989258 5.27348633 3.01831055 6.41235352 3.66577148 C7.54608398 4.32512695 8.67981445 4.98448242 9.84790039 5.66381836 C11.01983758 6.33476982 12.19235918 7.00470159 13.36547852 7.67358398 C16.21968672 9.30623806 19.06754638 10.94899885 21.91040039 12.60131836 C22.43860122 17.72682266 22.70748489 22.49248821 21.91040039 27.60131836 C19.36611624 30.68966327 16.56295279 32.08345304 12.91040039 33.60131836 C12.21430664 33.97643555 11.51821289 34.35155273 10.80102539 34.73803711 C8.91040039 35.60131836 8.91040039 35.60131836 5.91040039 35.60131836 C4.91040039 33.60131836 4.91040039 33.60131836 5.01586914 31.21069336 C5.10774031 28.00832676 4.93442483 25.64789729 3.91040039 22.60131836 C0.31405904 19.12465559 -3.18143474 17.49060259 -8.08959961 16.60131836 C-12.94563515 17.287433 -15.96068982 18.80109397 -19.08959961 22.60131836 C-20.31805751 27.70047767 -20.37488796 32.38651261 -20.08959961 37.60131836 C-19.32389648 37.80499023 -18.55819336 38.00866211 -17.76928711 38.21850586 C-12.58811937 40.1655689 -7.98526785 42.94019639 -3.21459961 45.72631836 C-2.24006836 46.28963867 -1.26553711 46.85295898 -0.26147461 47.43334961 C2.13202001 48.81782199 4.52248419 50.20725377 6.91040039 51.60131836 C6.91040039 52.92131836 6.91040039 54.24131836 6.91040039 55.60131836 C4.85678619 56.80702743 2.79484884 57.99038477 0.72290039 59.16381836 C0.14475586 59.50606445 -0.43338867 59.84831055 -1.02905273 60.20092773 C-3.59854417 61.63810091 -5.44638531 62.66048843 -8.42773438 62.38623047 C-11.5829497 61.45584275 -14.1486598 60.09818613 -17.01147461 58.47631836 C-18.1187793 57.85241211 -19.22608398 57.22850586 -20.36694336 56.58569336 C-21.51291992 55.93084961 -22.65889648 55.27600586 -23.83959961 54.60131836 C-25.01244188 53.93926655 -26.1856159 53.27780207 -27.35913086 52.61694336 C-35.92029368 47.77062429 -35.92029368 47.77062429 -37.08959961 46.60131836 C-37.47735256 41.99148968 -37.57473597 37.38059698 -37.65942383 32.75634766 C-37.69600936 31.20308134 -37.75050962 29.65012686 -37.82348633 28.09814453 C-38.41665943 15.29025243 -38.41665943 15.29025243 -35.36254883 11.40332031 C-33.01011165 9.81564298 -30.69792433 8.71293657 -28.08959961 7.60131836 C-26.55458442 6.68422692 -25.03078158 5.74808466 -23.51928711 4.79272461 C-22.00331456 3.91252442 -20.48508204 3.03620493 -18.96459961 2.16381836 C-18.2053418 1.70555664 -17.44608398 1.24729492 -16.66381836 0.77514648 C-15.91487305 0.34782227 -15.16592773 -0.07950195 -14.39428711 -0.51977539 C-13.73412598 -0.90576904 -13.07396484 -1.2917627 -12.39379883 -1.68945312 C-7.95074198 -3.0570183 -4.12762341 -1.8686017 0 0 Z " fill="#36464E" transform="translate(234.089599609375,103.398681640625)"/>
<path d="M0 0 C1.00933594 0.57282715 1.00933594 0.57282715 2.0390625 1.15722656 C2.79703125 1.58261719 3.555 2.00800781 4.3359375 2.44628906 C5.10421875 2.89230469 5.8725 3.33832031 6.6640625 3.79785156 C7.43234375 4.22839844 8.200625 4.65894531 8.9921875 5.10253906 C11.24557796 6.38252616 13.47026818 7.66755873 15.6640625 9.04785156 C16.26037979 9.35494553 16.85669708 9.66203949 17.47108459 9.97843933 C20.35527172 11.6517213 22.31937498 12.85522894 23.27267456 16.15365601 C23.47531689 18.77737059 23.4515097 21.31287125 23.34765625 23.94238281 C23.33775162 24.88973801 23.32784698 25.8370932 23.31764221 26.81315613 C23.27854506 29.83048211 23.19073437 32.84413096 23.1015625 35.86035156 C23.06644248 37.90912704 23.03450468 39.95795971 23.00585938 42.00683594 C22.92879831 47.0219184 22.80804932 52.03426226 22.6640625 57.04785156 C17.18016617 56.16089756 12.7272279 55.28963171 7.96875 52.29785156 C2.43075645 44.48834202 4.32878553 32.26648473 4.6640625 23.04785156 C-2.44308087 18.26713574 -2.44308087 18.26713574 -10.76953125 17.29394531 C-14.72517725 18.81826988 -17.44397616 20.21297332 -19.3359375 24.04785156 C-20.16164602 29.54106689 -19.88084004 35.06588058 -19.75537109 40.60400391 C-19.75176934 49.05252582 -19.75176934 49.05252582 -21.44384766 51.93554688 C-25.6911005 55.96864044 -30.67353137 57.04785156 -36.3359375 57.04785156 C-36.3359375 42.52785156 -36.3359375 28.00785156 -36.3359375 13.04785156 C-32.0253125 10.55222656 -27.7146875 8.05660156 -23.2734375 5.48535156 C-21.25464478 4.29703735 -21.25464478 4.29703735 -19.19506836 3.0847168 C-18.11620361 2.47313721 -17.03733887 1.86155762 -15.92578125 1.23144531 C-14.28403931 0.28096313 -14.28403931 0.28096313 -12.60913086 -0.6887207 C-7.96275041 -2.48218821 -4.55030886 -1.85474546 0 0 Z " fill="#36464E" transform="translate(36.3359375,102.9521484375)"/>
<path d="M0 0 C6.1546999 1.64470132 11.35196779 4.88431413 16.8125 8.0625 C17.77865234 8.61744141 18.74480469 9.17238281 19.74023438 9.74414062 C26.84083005 13.84083005 26.84083005 13.84083005 28 15 C28.08783542 17.21855264 28.10694609 19.43988496 28.09765625 21.66015625 C28.0962413 22.32462265 28.09482635 22.98908905 28.09336853 23.6736908 C28.08775518 25.80333899 28.07520054 27.93288339 28.0625 30.0625 C28.05748671 31.50325369 28.05292351 32.94400903 28.04882812 34.38476562 C28.03778145 37.92321102 28.02050792 41.46159539 28 45 C25.17340873 42.3404363 23.08999338 39.78745434 21.15234375 36.4296875 C20.63438232 35.54112061 20.1164209 34.65255371 19.58276367 33.73706055 C19.03982666 32.79258057 18.49688965 31.84810059 17.9375 30.875 C16.78770192 28.89901543 15.63663839 26.92376673 14.484375 24.94921875 C13.90623047 23.95712402 13.32808594 22.9650293 12.73242188 21.94287109 C9.64934141 16.70563153 6.45483732 11.5369971 3.25170898 6.37255859 C0 1.10277867 0 1.10277867 0 0 Z " fill="#2F7E32" transform="translate(95,102)"/>
<path d="M0 0 C3.07285049 3.84106311 5.67156038 7.56792439 8.15234375 11.76953125 C8.5343544 12.40936447 8.91636505 13.04919769 9.30995178 13.7084198 C10.5226543 15.74104074 11.73027523 17.77662185 12.9375 19.8125 C14.13968252 21.83289156 15.34292984 23.85264355 16.54678345 25.87203979 C17.31870453 27.16731429 18.08969747 28.46314242 18.85971069 29.759552 C20.87707785 33.14939985 22.93769669 36.50331186 25.06640625 39.82421875 C27 43 27 43 27 45 C23.40252773 43.63358421 20.07041808 42.0328614 16.69921875 40.1796875 C15.37796997 39.45628174 15.37796997 39.45628174 14.0300293 38.71826172 C12.92699463 38.10998535 11.82395996 37.50170898 10.6875 36.875 C7.160625 34.93625 3.63375 32.9975 0 31 C0 20.77 0 10.54 0 0 Z " fill="#2E7E32" transform="translate(64,120)"/>
<path d="M0 0 C0.33 0 0.66 0 1 0 C1 8.91 1 17.82 1 27 C-2.39746 23.60254 -4.09057999 21.3725291 -6.25 17.25 C-6.77078125 16.26515625 -7.2915625 15.2803125 -7.828125 14.265625 C-8.21484375 13.51796875 -8.6015625 12.7703125 -9 12 C-8.39542969 11.42765625 -7.79085937 10.8553125 -7.16796875 10.265625 C-5.16435168 8.17175491 -3.77215874 6.23648491 -2.3125 3.75 C-1.5667983 2.48484665 -0.8028671 1.22967006 0 0 Z " fill="#378D3C" transform="translate(122,120)"/>
<path d="M0 0 C2.72558157 3.40697697 4.74657784 6.08390876 6.75 9.8125 C7.17796875 10.60269531 7.6059375 11.39289063 8.046875 12.20703125 C8.36140625 12.79871094 8.6759375 13.39039063 9 14 C7.69181533 16.16938141 6.37874076 18.3355152 5.0625 20.5 C4.68931641 21.12003906 4.31613281 21.74007812 3.93164062 22.37890625 C2.9818016 23.93629997 1.99386689 25.4703275 1 27 C0.67 27 0.34 27 0 27 C0 18.09 0 9.18 0 0 Z " fill="#388E3C" transform="translate(64,120)"/>
<path d="M0 0 C3.375 0.6875 3.375 0.6875 4.375 1.6875 C4.41592937 4.02047433 4.41741723 6.35455225 4.375 8.6875 C1.88729865 10.25383048 0.71947796 10.72850928 -2.25 10.375 C-4.625 9.6875 -4.625 9.6875 -6.625 8.6875 C-6.8125 5.3125 -6.8125 5.3125 -6.625 1.6875 C-3.625 -0.3125 -3.625 -0.3125 0 0 Z " fill="#378E3B" transform="translate(227.625,128.3125)"/>
</svg>
