<?xml version="1.0" encoding="UTF-8"?>
<svg version="1.1" xmlns="http://www.w3.org/2000/svg" width="256" height="256">
<path d="M0 0 C0.98226562 0.00257812 1.96453125 0.00515625 2.9765625 0.0078125 C4.44222656 0.00394531 4.44222656 0.00394531 5.9375 0 C8.6015625 0.1328125 8.6015625 0.1328125 11.6015625 1.1328125 C12.64512968 3.93463226 13.46646535 6.62503147 14.2265625 9.5078125 C14.47164551 10.39944092 14.71672852 11.29106934 14.96923828 12.2097168 C19.02662636 27.1348447 22.79629364 42.14178172 26.6015625 57.1328125 C26.74745819 56.49023499 26.89335388 55.84765747 27.04367065 55.18560791 C28.5624798 48.50089831 30.08847081 41.81785752 31.61865234 35.13574219 C32.18885899 32.64137208 32.75722994 30.14658161 33.32373047 27.65136719 C34.13808246 24.06593655 34.95901307 20.48206699 35.78125 16.8984375 C36.03341278 15.78164612 36.28557556 14.66485474 36.54537964 13.51422119 C36.90552658 11.95305573 36.90552658 11.95305573 37.27294922 10.36035156 C37.48168671 9.44545959 37.69042419 8.53056763 37.90548706 7.58795166 C38.58392713 5.19501451 39.26584486 3.23203462 40.6015625 1.1328125 C43.37208431 0.20930523 45.16845008 -0.03048335 48.0390625 -0.0546875 C48.80089844 -0.06886719 49.56273437 -0.08304688 50.34765625 -0.09765625 C53.09888417 0.18366515 54.35038171 0.48053439 56.6015625 2.1328125 C57.55072878 4.7489235 58.22799681 7.12565077 58.8203125 9.82421875 C59.00493042 10.60232407 59.18954834 11.38042938 59.37976074 12.18211365 C59.96935851 14.68315084 60.53576911 17.18879472 61.1015625 19.6953125 C61.48154641 21.32522642 61.86304221 22.95478866 62.24609375 24.58398438 C63.00385591 27.81845664 63.75230736 31.05484814 64.4921875 34.29345703 C65.60225684 39.14964136 66.73911595 43.9992951 67.8828125 48.84765625 C68.05623169 49.58335342 68.22965088 50.3190506 68.4083252 51.07704163 C68.80575716 52.76237261 69.20360789 54.44760485 69.6015625 56.1328125 C71.14187768 53.27336714 72.11441805 50.57612092 72.8984375 47.42773438 C73.24890137 46.0360907 73.24890137 46.0360907 73.60644531 44.61633301 C73.85233398 43.62145874 74.09822266 42.62658447 74.3515625 41.6015625 C74.6103418 40.57349487 74.86912109 39.54542725 75.13574219 38.48620605 C75.96209957 35.20283098 76.78254244 31.918025 77.6015625 28.6328125 C78.67962259 24.30855153 79.76370257 19.9858672 80.8515625 15.6640625 C81.09745117 14.66918823 81.34333984 13.67431396 81.59667969 12.64929199 C81.83032227 11.72152954 82.06396484 10.79376709 82.3046875 9.83789062 C82.50739258 9.02388794 82.71009766 8.20988525 82.91894531 7.37121582 C83.61546377 5.08722817 84.33364321 3.15932913 85.6015625 1.1328125 C88.54386171 0.1520461 90.5924409 -0.03206878 93.6640625 -0.0546875 C94.98083984 -0.07595703 94.98083984 -0.07595703 96.32421875 -0.09765625 C98.6015625 0.1328125 98.6015625 0.1328125 100.6015625 2.1328125 C100.21686548 10.52354694 96.62394413 19.05734153 94.13671875 27.0390625 C93.6982302 28.45483474 93.25987295 29.87064764 92.82164001 31.28649902 C91.90826094 34.23251273 90.99068657 37.17718201 90.07055664 40.12109375 C88.89178815 43.89503682 87.72782664 47.67337538 86.56736088 51.45298004 C85.66965489 54.36858355 84.76220461 57.28108499 83.85195732 60.1927948 C83.41826856 61.58558478 82.98810271 62.97947682 82.5615406 64.37446594 C81.96671833 66.3159635 81.35688139 68.25284192 80.74633789 70.18945312 C80.40373428 71.29180298 80.06113068 72.39415283 79.70814514 73.52990723 C78.6015625 76.1328125 78.6015625 76.1328125 75.6015625 78.1328125 C72.7890625 78.43359375 72.7890625 78.43359375 69.6015625 78.4453125 C68.5496875 78.46207031 67.4978125 78.47882813 66.4140625 78.49609375 C63.15547828 78.07519329 62.59134971 77.64504076 60.6015625 75.1328125 C59.79196167 72.88058472 59.79196167 72.88058472 59.17529297 70.21826172 C58.93849823 69.22067841 58.70170349 68.22309509 58.45773315 67.19528198 C58.09193649 65.5826799 58.09193649 65.5826799 57.71875 63.9375 C57.45901398 62.83431427 57.19927795 61.73112854 56.93167114 60.59451294 C56.10309125 57.06790898 55.28918237 53.53812506 54.4765625 50.0078125 C53.65432538 46.47099427 52.82905782 42.93492146 52.00003052 39.39968872 C51.48466298 37.19832994 50.97371952 34.9959301 50.46749878 32.79244995 C50.12176315 31.30553146 50.12176315 31.30553146 49.76904297 29.78857422 C49.56713348 28.91159882 49.365224 28.03462341 49.15719604 27.131073 C48.78285073 25.15015731 48.78285073 25.15015731 47.6015625 24.1328125 C47.46010803 24.75033386 47.31865356 25.36785522 47.1729126 26.00408936 C45.69748509 32.43198841 44.2018234 38.85493645 42.69433594 45.27539062 C42.13444278 47.67196689 41.57971617 50.06975629 41.03027344 52.46875 C40.23948488 55.91738749 39.43020219 59.3612314 38.6171875 62.8046875 C38.37534729 63.87773132 38.13350708 64.95077515 37.88433838 66.05633545 C37.64439148 67.05707092 37.40444458 68.0578064 37.15722656 69.08886719 C36.9529303 69.96822937 36.74863403 70.84759155 36.53814697 71.75360107 C35.39724023 74.65185365 33.98558778 76.15307627 31.6015625 78.1328125 C28.9453125 78.6640625 28.9453125 78.6640625 26.1015625 78.6328125 C25.163125 78.643125 24.2246875 78.6534375 23.2578125 78.6640625 C19.80011841 77.97252368 18.84791817 76.82968062 16.6015625 74.1328125 C15.36126709 71.14859009 15.36126709 71.14859009 14.31152344 67.62353516 C14.11586792 66.97909958 13.9202124 66.334664 13.71862793 65.67070007 C13.07833751 63.54967102 12.45677551 61.42367172 11.8359375 59.296875 C11.39413838 57.81454395 10.95143647 56.3324817 10.50787354 54.85067749 C9.5820962 51.74784098 8.6651939 48.64256453 7.75488281 45.53515625 C6.59017802 41.56086549 5.40691459 37.59240696 4.21734238 33.62549782 C3.30164142 30.56638877 2.39423375 27.50486984 1.48944855 24.44251633 C1.05622854 22.97871397 0.62084294 21.51555067 0.18321991 20.05305862 C-0.42801911 18.00463343 -1.02841084 15.9533283 -1.62597656 13.90087891 C-1.96920959 12.73601959 -2.31244263 11.57116028 -2.66607666 10.3710022 C-3.39279236 7.15777294 -3.61386106 4.41428477 -3.3984375 1.1328125 C-2.3984375 0.1328125 -2.3984375 0.1328125 0 0 Z " fill="#242E3D" transform="translate(83.3984375,59.8671875)"/>
<path d="M0 0 C6.11949855 0.45091042 10.2212917 2.48495602 15.5 5.5 C50.37342466 24.53715036 90.61096272 33.50159371 130.1875 33.3125 C131.38948532 33.30976578 131.38948532 33.30976578 132.61575317 33.30697632 C163.09621006 33.19092294 195.72336023 28.06264395 223.4921875 14.8828125 C226.49758841 13.82483648 228.83565983 13.70912751 232 14 C234 16 234 16 234.125 18.25 C230.17374849 27.9086148 213.28389298 34.195926 204.11328125 38.1796875 C182.87252652 47.05117868 160.13002557 53.2827899 137 54 C136.36868164 54.02578125 135.73736328 54.0515625 135.08691406 54.078125 C113.77313671 54.86715887 92.40989757 52.17330956 72 46 C70.92927246 45.67757324 70.92927246 45.67757324 69.83691406 45.34863281 C45.66723429 37.86620997 24.16029025 25.41365106 5 9 C4.08476563 8.31421875 3.16953125 7.6284375 2.2265625 6.921875 C0 5 0 5 -0.3125 2.25 C-0.209375 1.5075 -0.10625 0.765 0 0 Z " fill="#FF9900" transform="translate(0,160)"/>
<path d="M0 0 C7.58448475 9.18121838 6.97341266 18.96967629 7 30.3125 C6.75301079 46.34104097 6.75301079 46.34104097 10.5625 61.75 C11.375 63.875 11.375 63.875 11.375 65.875 C9.73380352 69.15739296 7.35279317 70.81345088 4.375 72.875 C1.87890625 73.265625 1.87890625 73.265625 -0.625 72.875 C-2.42578125 71.125 -2.42578125 71.125 -3.9375 68.875 C-4.44925781 68.1325 -4.96101563 67.39 -5.48828125 66.625 C-5.86339844 66.0475 -6.23851562 65.47 -6.625 64.875 C-7.36105469 65.35710937 -8.09710938 65.83921875 -8.85546875 66.3359375 C-9.83128906 66.96757812 -10.80710938 67.59921875 -11.8125 68.25 C-12.77542969 68.87648438 -13.73835938 69.50296875 -14.73046875 70.1484375 C-22.30384418 74.66588951 -30.81535272 75.85083075 -39.5 74.1875 C-46.35500847 72.29432979 -50.0457768 68.83798472 -53.64453125 62.875 C-56.55403799 56.94006993 -56.58329481 49.73869818 -55.01171875 43.40234375 C-52.50427209 36.96251378 -48.13276811 32.13082929 -41.92773438 29.02563477 C-36.47195513 26.70555779 -31.4975137 26.45127815 -25.625 26.5625 C-24.34882812 26.55766602 -24.34882812 26.55766602 -23.046875 26.55273438 C-17.5929467 26.59874144 -12.86224869 27.35353076 -7.625 28.875 C-7.88159311 26.64414933 -8.15587314 24.41532877 -8.4375 22.1875 C-8.58832031 20.94613281 -8.73914062 19.70476562 -8.89453125 18.42578125 C-9.62447285 14.87756245 -10.43699614 12.73703348 -12.625 9.875 C-22.94503193 4.62445744 -31.97388655 6.93601349 -42.55615234 10.18359375 C-48.43442499 11.97028751 -48.43442499 11.97028751 -50.625 10.875 C-50.97530608 7.47573355 -51.11618251 4.26522712 -50.625 0.875 C-39.11549584 -10.93738585 -12.18632646 -9.86512142 0 0 Z M-37.4375 42.375 C-40.19852978 45.86261657 -39.91244224 49.63522695 -39.625 53.875 C-38.07183271 58.09311414 -38.07183271 58.09311414 -34.84375 61.01953125 C-29.95677689 62.90376912 -24.2388695 62.67693343 -19.26953125 61.15234375 C-15.01442535 59.18046541 -12.0908938 56.95320898 -9.625 52.875 C-8.0016863 48.41088734 -7.39386756 44.61321511 -7.625 39.875 C-12.6171344 38.2581926 -16.88653769 37.57881065 -22.1875 37.5625 C-23.44691406 37.54574219 -24.70632812 37.52898437 -26.00390625 37.51171875 C-30.60406554 37.9732234 -33.88418936 39.43432912 -37.4375 42.375 Z " fill="#242E3D" transform="translate(65.625,65.125)"/>
<path d="M0 0 C1.60725635 3.21451269 1.05748185 6.43612536 1 10 C-2.75329531 10.99604146 -4.83866335 10.96585918 -8.4375 9.5625 C-15.75511456 7.18180681 -24.16038198 6.40164738 -31.359375 9.3984375 C-34.0884581 10.73288014 -34.0884581 10.73288014 -35 13 C-35.49607779 16.7205834 -35.44568089 18.39809118 -33.18359375 21.453125 C-28.50749954 25.86492544 -21.62238932 27.03806815 -15.63476562 28.87304688 C-8.15728077 31.28435307 -1.82729609 34.16946981 2.9375 40.625 C5.74514529 46.900913 5.99923509 53.72685804 3.8125 60.25 C0.9650602 66.9072088 -4.7358532 70.77978195 -11 74 C-22.99961146 78.34468691 -36.33981505 76.32563744 -48.14453125 72.26171875 C-49.8125 71.4375 -49.8125 71.4375 -52 69 C-52.47539602 65.60812955 -52.35031051 62.39930943 -52 59 C-48.18266963 57.55141878 -45.92202287 58.54233863 -42.1875 59.9375 C-33.84818929 62.64519051 -24.11634439 63.92176889 -15.6875 60.75 C-12.31557595 58.58355363 -12.31557595 58.58355363 -11 55 C-11.18244841 52.02000925 -11.33251413 49.865749 -13.18359375 47.46484375 C-15.58457479 45.52856872 -17.97790107 44.68042235 -20.875 43.625 C-22.02871094 43.19445312 -23.18242187 42.76390625 -24.37109375 42.3203125 C-26.75608857 41.45257488 -29.14405182 40.5929451 -31.53515625 39.7421875 C-39.24173367 36.92853466 -45.00885901 34.69939772 -49.375 27.4375 C-52.22784752 21.14691153 -52.03790173 14.00445238 -49.8125 7.5625 C-44.87321738 0.57937629 -38.61667617 -3.89095951 -30.21875 -5.68359375 C-19.93129168 -7.15064326 -8.72326895 -5.99532089 0 0 Z " fill="#242E3D" transform="translate(241,64)"/>
<path d="M0 0 C1.43182617 -0.02416992 1.43182617 -0.02416992 2.89257812 -0.04882812 C8.6970643 -0.05283398 12.78558944 0.60435284 17.9375 3.3125 C18.73800438 18.14406736 15.61480717 31.76999023 6.13671875 43.55078125 C2.92403051 46.98361087 2.92403051 46.98361087 0.9375 48.3125 C-0.3825 48.3125 -1.7025 48.3125 -3.0625 48.3125 C-2.37213085 41.82303 -0.41304672 36.10932003 1.765625 29.984375 C4.76158339 21.76579306 4.76158339 21.76579306 3.9375 13.3125 C0.39923745 12.13307915 -2.40398726 12.19960811 -6.13671875 12.21484375 C-6.8205513 12.2162587 -7.50438385 12.21767365 -8.2089386 12.21913147 C-10.38933722 12.22472124 -12.56963251 12.23727178 -14.75 12.25 C-16.22981622 12.25501633 -17.70963406 12.259579 -19.18945312 12.26367188 C-22.81383557 12.27468729 -26.4381577 12.29194488 -30.0625 12.3125 C-29.31298828 7.50146484 -29.31298828 7.50146484 -27.05859375 5.80078125 C-26.21425781 5.41277344 -25.36992187 5.02476562 -24.5 4.625 C-23.67371094 4.22925781 -22.84742188 3.83351562 -21.99609375 3.42578125 C-14.54278058 0.59729356 -7.91071486 -0.02681598 0 0 Z " fill="#FF9800" transform="translate(238.0625,154.6875)"/>
</svg>
